<svg width="57" height="55" viewBox="0 0 57 55" fill="none" xmlns="http://www.w3.org/2000/svg">
<path fill-rule="evenodd" clip-rule="evenodd" d="M22 12H42V16H46V20H50V40H46V44H42V48H22V44H18V40H14V20H18V16H22V12Z" fill="#EA7600" style="fill:#EA7600;fill:color(display-p3 0.9176 0.4627 0.0000);fill-opacity:1;"/>
<path fill-rule="evenodd" clip-rule="evenodd" d="M24.2222 20H24.2223V22.2222H26.4445V20H37.5556V22.2222H39.7777V24.4444H41.9999V22.2222V22.2222V20H42V40H41.9999V37.7778H39.7778H39.7777H37.5556V40H26.4445V37.7778H24.2223V40H24.2222V37.7778H22V37.7777H24.2222V35.5555H22V24.4444H24.2222V22.2222V22.2222V20ZM41.9999 35.5555H39.7777V37.7777H41.9999V35.5555Z" fill="white" style="fill:white;fill-opacity:1;"/>
<path fill-rule="evenodd" clip-rule="evenodd" d="M28.1111 23H35.889V24.5556H37.4445V26.1111H39V33.8889H37.4445V35.4444H39V35.4445H37.4445H37.4445H35.889V37H28.1111V35.4445H26.5556H26.5555H25V35.4444H26.5556V33.8889H25V26.1111H26.5556V24.5556H28.1111V23Z" fill="#265787" style="fill:#265787;fill:color(display-p3 0.1490 0.3412 0.5294);fill-opacity:1;"/>
<path d="M14 20H7V17.5H3.5V14.75H7V12H22V16H18V20H14Z" fill="#EA7600" style="fill:#EA7600;fill:color(display-p3 0.9176 0.4627 0.0000);fill-opacity:1;"/>
<path d="M9.8 23H14V32.3333H9.8V35H0V32.3333V28.3333H4.2V25.6667H9.8V23Z" fill="#EA7600" style="fill:#EA7600;fill:color(display-p3 0.9176 0.4627 0.0000);fill-opacity:1;"/>
<path d="M26.2 0L22 0V9.33333H26.2V12L36 12H38.5V9.33333H36V5.33333L31.8 5.33333V2.66667L26.2 2.66667V0Z" fill="#EA7600" style="fill:#EA7600;fill:color(display-p3 0.9176 0.4627 0.0000);fill-opacity:1;"/>
</svg>
