<svg width="50" height="50" viewBox="0 0 50 50" fill="none" xmlns="http://www.w3.org/2000/svg">
<path fill-rule="evenodd" clip-rule="evenodd" d="M4 0H46V4H50V46H46V50H4V46H0V4H4V0Z" fill="#242938" style="fill:#242938;fill:color(display-p3 0.1412 0.1608 0.2196);fill-opacity:1;"/>
<path fill-rule="evenodd" clip-rule="evenodd" d="M25 10H33V12H35V18H33V20H25V10Z" fill="#FF7262" style="fill:#FF7262;fill:color(display-p3 1.0000 0.4471 0.3843);fill-opacity:1;"/>
<path fill-rule="evenodd" clip-rule="evenodd" d="M27 20H33V22H35V28H33V30H27V28H25V22H27V20Z" fill="#1ABCFE" style="fill:#1ABCFE;fill:color(display-p3 0.1020 0.7373 0.9961);fill-opacity:1;"/>
<path fill-rule="evenodd" clip-rule="evenodd" d="M17 10H25V20H17V18H15V12H17V10Z" fill="#F24E1E" style="fill:#F24E1E;fill:color(display-p3 0.9490 0.3059 0.1176);fill-opacity:1;"/>
<path fill-rule="evenodd" clip-rule="evenodd" d="M17 20H25V30H17V28H15V22H17V20Z" fill="#A259FF" style="fill:#A259FF;fill:color(display-p3 0.6353 0.3490 1.0000);fill-opacity:1;"/>
<path fill-rule="evenodd" clip-rule="evenodd" d="M25 30H17V32H15V38H17V40H23V38H25V30Z" fill="#0ACF83" style="fill:#0ACF83;fill:color(display-p3 0.0392 0.8118 0.5137);fill-opacity:1;"/>
</svg>
